<svg width="15" height="16" viewBox="0 0 15 16" fill="none" xmlns="http://www.w3.org/2000/svg">
<path d="M8.72727 2.42424C8.72727 2.03847 8.57403 1.6685 8.30125 1.39572C8.02847 1.12294 7.6585 0.969697 7.27273 0.969697C6.88696 0.969697 6.51699 1.12294 6.24421 1.39572C5.97143 1.6685 5.81818 2.03847 5.81818 2.42424H4.84848C4.84848 1.78129 5.1039 1.16468 5.55853 0.710044C6.01316 0.255411 6.62978 0 7.27273 0C7.91568 0 8.53229 0.255411 8.98693 0.710044C9.44156 1.16468 9.69697 1.78129 9.69697 2.42424H14.0606C14.1892 2.42424 14.3125 2.47532 14.4034 2.56625C14.4944 2.65718 14.5455 2.7805 14.5455 2.90909C14.5455 3.03768 14.4944 3.161 14.4034 3.25193C14.3125 3.34286 14.1892 3.39394 14.0606 3.39394H13.5234L12.2667 14.2836C12.212 14.7563 11.9854 15.1923 11.6301 15.5088C11.2749 15.8252 10.8157 16.0001 10.3399 16H4.20558C3.72979 16.0001 3.27058 15.8252 2.91531 15.5088C2.56004 15.1923 2.3335 14.7563 2.27879 14.2836L1.02109 3.39394H0.484848C0.371369 3.39398 0.261472 3.35421 0.174294 3.28156C0.0871172 3.20891 0.0281837 3.10799 0.00775748 2.99636L0 2.90909C0 2.7805 0.0510822 2.65718 0.142009 2.56625C0.232936 2.47532 0.356259 2.42424 0.484848 2.42424H8.72727ZM12.5459 3.39394H1.99855L3.2417 14.1721C3.26906 14.4085 3.3824 14.6266 3.56014 14.7848C3.73788 14.9431 3.9676 15.0305 4.20558 15.0303H10.3399C10.5777 15.0302 10.8072 14.9427 10.9847 14.7845C11.1622 14.6263 11.2754 14.4084 11.3028 14.1721L12.5459 3.39394ZM5.81818 5.81818C6.05576 5.81818 6.25455 5.96849 6.29527 6.1663L6.30303 6.24291V12.1823C6.30303 12.416 6.08582 12.6061 5.81818 12.6061C5.58061 12.6061 5.38182 12.4558 5.34109 12.2579L5.33333 12.1813V6.24388C5.33333 6.00921 5.55055 5.81915 5.81818 5.81915V5.81818ZM8.72727 5.81818C8.96485 5.81818 9.16364 5.96849 9.20436 6.1663L9.21212 6.24291V12.1823C9.21212 12.416 8.99491 12.6061 8.72727 12.6061C8.4897 12.6061 8.29091 12.4558 8.25018 12.2579L8.24242 12.1813V6.24388C8.24242 6.00921 8.45964 5.81915 8.72727 5.81915V5.81818Z" fill="black"/>
</svg>
