<svg width="100" height="51" viewBox="0 0 100 51" fill="none" xmlns="http://www.w3.org/2000/svg">
<path d="M99.801 1.26505L53.4086 49.6852C51.7245 51.4383 48.2773 51.4383 46.6063 49.6852L0.20081 1.26505C0.0866101 1.14596 0.0181985 1.00526 0.00315666 0.858543C-0.0118851 0.711824 0.0270311 0.564816 0.115592 0.433817C0.204153 0.302817 0.338899 0.192944 0.504894 0.116373C0.670889 0.0398014 0.861649 -0.000475017 1.05603 7.62939e-06H10.9239C11.595 7.62939e-06 12.2265 0.249029 12.6212 0.657427L50.0009 39.6645L87.3806 0.657427C87.7753 0.249029 88.4068 7.62939e-06 89.0778 7.62939e-06H98.9458C99.801 7.62939e-06 100.301 0.737118 99.801 1.26505V1.26505Z" fill="#D33722"/>
</svg>
