<svg width="15" height="15" viewBox="0 0 15 15" fill="none" xmlns="http://www.w3.org/2000/svg">
<path d="M6.31976 9.13813L7.3195 8.98493L13.4609 2.40611C13.5188 2.34622 13.565 2.27459 13.5967 2.19538C13.6285 2.11618 13.6452 2.03099 13.6459 1.9448C13.6466 1.8586 13.6313 1.77311 13.6008 1.69333C13.5703 1.61355 13.5254 1.54107 13.4685 1.48011C13.4116 1.41916 13.3439 1.37096 13.2695 1.33832C13.195 1.30567 13.1152 1.28925 13.0348 1.29C12.9543 1.29075 12.8748 1.30865 12.8009 1.34268C12.727 1.3767 12.6601 1.42616 12.6042 1.48816L6.46154 8.06698L6.31854 9.13813H6.31976ZM14.3177 0.568918C14.4866 0.74978 14.6206 0.964532 14.712 1.2009C14.8035 1.43727 14.8505 1.69062 14.8505 1.94648C14.8505 2.20234 14.8035 2.4557 14.712 2.69207C14.6206 2.92844 14.4866 3.14319 14.3177 3.32405L8.03447 10.0561C7.94181 10.1557 7.82146 10.2204 7.69152 10.2404L5.69204 10.5469C5.59885 10.5612 5.50383 10.5521 5.41451 10.5202C5.32519 10.4884 5.24403 10.4346 5.17747 10.3633C5.1109 10.292 5.06076 10.205 5.03102 10.1093C5.00129 10.0136 4.99277 9.91182 5.00615 9.81199L5.29214 7.66968C5.3105 7.53062 5.37046 7.4017 5.46301 7.30224L11.7475 0.570216C12.0883 0.205107 12.5506 0 13.0326 0C13.5146 0 13.9768 0.205107 14.3177 0.570216V0.568918Z" fill="black"/>
<path d="M7.74074 1H1V14H14V7.25926" stroke="black" stroke-linecap="round" stroke-linejoin="round"/>
</svg>
