<svg width="181" height="36" viewBox="0 0 181 36" fill="none" xmlns="http://www.w3.org/2000/svg">
<g clip-path="url(#clip0_309_2)">
<path d="M60.0487 18.268V18.2258C60.0487 15.856 60.5311 14.1608 61.4776 13.1235C62.2148 12.4066 63.2523 12.0187 64.3171 12.0355C65.5913 12.0355 66.5651 12.3982 67.2659 13.115C67.5935 13.4608 67.8574 13.8572 68.0668 14.2704H73.6367C73.2453 12.8367 72.5445 11.4958 71.5706 10.3235C69.8233 8.47653 67.3568 7.54883 64.1624 7.54883C61.1409 7.54883 58.7838 8.50183 57.0818 10.4078C55.4345 12.2548 54.6155 14.8439 54.6155 18.1415C54.6155 18.1836 54.6155 18.3439 54.6155 18.3861C54.6155 21.6836 55.4345 24.2643 57.0818 26.1197C58.7838 28.0341 61.1409 28.9871 64.1624 28.9787C67.3478 28.9787 69.8141 28.051 71.5706 26.204C72.5445 25.0318 73.2453 23.6908 73.6367 22.2571H69.1589C68.5582 22.2571 67.9667 22.5185 67.63 22.9824C67.5208 23.1342 67.3933 23.2776 67.2659 23.4209C66.5743 24.1378 65.6004 24.5004 64.3171 24.5004C63.2432 24.5257 62.2148 24.1294 61.4776 23.4125C60.522 22.3836 60.0487 20.68 60.0487 18.3102V18.268Z" fill="#221F1F"/>
<path d="M90.4007 8.12256C88.8171 7.49847 87.0515 7.3804 85.3951 7.80208C83.6568 8.20689 82.1824 9.26953 81.336 10.737V3.77923C81.336 2.80093 80.4806 2.0166 79.434 2.0166H75.9119V28.6163H81.3179V18.0152C81.3179 16.2104 81.7092 14.7936 82.5101 13.7647C83.2928 12.7442 84.5851 12.1623 85.9321 12.2213C87.2427 12.1876 88.4803 12.7948 89.1902 13.8237L89.1994 13.8321C89.6362 14.4309 89.9456 15.0972 90.1003 15.8056C90.2369 16.5056 90.3006 17.214 90.3006 17.9309V28.5994H95.6429V16.6237C95.6429 14.2538 95.1423 12.3984 94.1412 11.0575C93.2038 9.78398 91.9115 8.76351 90.4007 8.12256Z" fill="#221F1F"/>
<path d="M50.2559 10.3579C48.4994 8.50254 46.033 7.56641 42.8568 7.56641C39.8352 7.56641 37.469 8.51941 35.7762 10.4254C34.1379 12.2724 33.3098 14.8615 33.3098 18.1591C33.3098 21.6084 34.1562 24.265 35.849 26.1204C37.5509 28.018 39.8989 28.9794 42.9296 28.9794C45.4233 28.9794 47.4802 28.3385 49.1275 27.1999C50.7747 26.0614 51.885 24.4168 52.4675 22.2578H48.2173C47.5621 22.2578 46.9432 22.553 46.561 23.0421C46.0513 23.6915 45.0592 24.5012 43.2664 24.5012C41.883 24.5012 40.8454 24.0795 40.1447 23.253C39.3984 22.4855 39.007 21.3048 38.9524 19.7024H52.695C52.7042 15.5952 51.967 12.2555 50.2559 10.3579ZM38.9616 16.2193C39.0162 14.8868 39.4075 13.8579 40.1538 13.1326C40.9 12.4157 41.9376 12.0194 43.0115 12.0531C44.2948 12.0531 45.3232 12.4664 45.9602 13.1326C46.5973 13.8073 46.9705 14.8278 47.0797 16.2193H38.9616Z" fill="#221F1F"/>
<path d="M36.7042 3.77923C36.7042 2.80093 35.8487 2.0166 34.802 2.0166H16.2996V6.72257H23.6715V28.591H29.3232V6.72257H36.7042V3.77923Z" fill="#221F1F"/>
<path d="M8.15479 28.5747H13.9339V8.95801H8.15479V28.5747Z" fill="#221F1F"/>
<path d="M0 10.7291V14.6591H5.76096V8.95801H1.91122C0.855498 8.95801 0 9.75077 0 10.7291Z" fill="#221F1F"/>
<path d="M13.9158 2H10.3846H10.066C9.54725 2 9.0831 2.19397 8.73726 2.49758C8.71905 2.51445 8.70996 2.52289 8.69175 2.53975C8.35501 2.86023 8.15479 3.29035 8.15479 3.77106V4.07468V6.71441H13.9158V2Z" fill="#221F1F"/>
<path d="M5.76096 22.8818H0V28.5745H5.76096V22.8818Z" fill="#221F1F"/>
<path d="M124.561 16.1152C124.561 19.1387 124.021 21.6758 122.943 23.7266C121.877 25.7656 120.307 27.2598 118.232 28.209L124.42 35.1172H117.441L112.73 29.3516H112.326C108.389 29.3516 105.365 28.209 103.256 25.9238C101.146 23.6387 100.092 20.3574 100.092 16.0801C100.092 11.8027 101.146 8.53906 103.256 6.28906C105.377 4.02734 108.412 2.89648 112.361 2.89648C116.311 2.89648 119.328 4.0332 121.414 6.30664C123.512 8.58008 124.561 11.8496 124.561 16.1152ZM105.805 16.1152C105.805 18.9863 106.35 21.1484 107.439 22.6016C108.529 24.0547 110.158 24.7812 112.326 24.7812C116.674 24.7812 118.848 21.8926 118.848 16.1152C118.848 10.3262 116.686 7.43164 112.361 7.43164C110.193 7.43164 108.559 8.16406 107.457 9.62891C106.355 11.082 105.805 13.2441 105.805 16.1152ZM143.387 29L142.666 26.4863H142.385C141.811 27.4004 140.996 28.1094 139.941 28.6133C138.887 29.1055 137.686 29.3516 136.338 29.3516C134.029 29.3516 132.289 28.7363 131.117 27.5059C129.945 26.2637 129.359 24.4824 129.359 22.1621V9.34766H134.721V20.8262C134.721 22.2441 134.973 23.3105 135.477 24.0254C135.98 24.7285 136.783 25.0801 137.885 25.0801C139.385 25.0801 140.469 24.582 141.137 23.5859C141.805 22.5781 142.139 20.9141 142.139 18.5938V9.34766H147.5V29H143.387ZM152.896 4.26758C152.896 2.52148 153.869 1.64844 155.814 1.64844C157.76 1.64844 158.732 2.52148 158.732 4.26758C158.732 5.09961 158.486 5.75 157.994 6.21875C157.514 6.67578 156.787 6.9043 155.814 6.9043C153.869 6.9043 152.896 6.02539 152.896 4.26758ZM158.486 29H153.125V9.34766H158.486V29ZM177.805 29H162.283V25.8359L171.389 13.4434H162.828V9.34766H177.488V12.8281L168.629 24.9043H177.805V29Z" fill="#221F1F"/>
</g>
<defs>
<clipPath id="clip0_309_2">
<rect width="181" height="36" fill="white"/>
</clipPath>
</defs>
</svg>
