<svg width="90" height="85" viewBox="0 0 90 85" fill="none" xmlns="http://www.w3.org/2000/svg">
<path d="M89.8209 83.8184L48.0678 38.5908C46.552 36.9533 43.4496 36.9533 41.9457 38.5908L0.180729 83.8184C0.0779491 83.9296 0.0163786 84.0611 0.002841 84.1981C-0.0106966 84.3351 0.024328 84.4725 0.104033 84.5948C0.183738 84.7172 0.305009 84.8198 0.454405 84.8913C0.6038 84.9629 0.775484 85.0005 0.950427 85H9.83155C10.4355 85 11.0039 84.7674 11.3591 84.386L45.0008 47.9508L78.6425 84.386C78.9978 84.7674 79.5661 85 80.1701 85H89.0512C89.8209 85 90.2709 84.3115 89.8209 83.8184V83.8184Z" fill="#D33722"/>
<path d="M89.8209 1.1816L48.0678 46.4092C46.552 48.0467 43.4496 48.0467 41.9457 46.4092L0.180729 1.1816C0.0779491 1.07037 0.0163786 0.938943 0.002841 0.801898C-0.0106966 0.664853 0.024328 0.527538 0.104033 0.405176C0.183738 0.282814 0.305009 0.180185 0.454405 0.108662C0.6038 0.0371395 0.775484 -0.000481341 0.950427 -3.05176e-05H9.83155C10.4355 -3.05176e-05 11.0039 0.232572 11.3591 0.614043L45.0008 37.0492L78.6425 0.614043C78.9978 0.232572 79.5661 -3.05176e-05 80.1701 -3.05176e-05H89.0512C89.8209 -3.05176e-05 90.2709 0.688479 89.8209 1.1816V1.1816Z" fill="#D33722"/>
</svg>
