<svg width="11" height="11" viewBox="0 0 11 11" fill="none" xmlns="http://www.w3.org/2000/svg">
<path d="M4.12416 6.00221e-08C4.90816 -0.000133658 5.67596 0.223158 6.33761 0.643715C6.99927 1.06427 7.52737 1.66468 7.86006 2.37459C8.19274 3.08451 8.31622 3.87453 8.21604 4.6521C8.11586 5.42967 7.79617 6.16259 7.29441 6.765L10.3897 9.8595C10.4561 9.92564 10.4953 10.0143 10.4997 10.1079C10.504 10.2016 10.4731 10.2934 10.4131 10.3654C10.353 10.4374 10.2682 10.4843 10.1753 10.4969C10.0824 10.5094 9.98815 10.4867 9.91116 10.4332L9.85866 10.3905L6.76416 7.29525C6.25505 7.71906 5.65137 8.01404 5.00417 8.15522C4.35697 8.2964 3.68528 8.27965 3.04593 8.10636C2.40657 7.93307 1.81835 7.60836 1.33102 7.15968C0.843688 6.711 0.47158 6.15156 0.246169 5.52867C0.0207572 4.90578 -0.0513269 4.23776 0.0360129 3.58112C0.123353 2.92448 0.367548 2.29853 0.747943 1.75622C1.12834 1.21391 1.63375 0.771185 2.22142 0.465493C2.80909 0.159802 3.46173 0.000135748 4.12416 6.00221e-08V6.00221e-08ZM4.12416 0.75C3.22905 0.75 2.37061 1.10558 1.73767 1.73851C1.10474 2.37145 0.749156 3.22989 0.749156 4.125C0.749156 5.02011 1.10474 5.87855 1.73767 6.51149C2.37061 7.14442 3.22905 7.5 4.12416 7.5C5.01926 7.5 5.87771 7.14442 6.51064 6.51149C7.14358 5.87855 7.49916 5.02011 7.49916 4.125C7.49916 3.22989 7.14358 2.37145 6.51064 1.73851C5.87771 1.10558 5.01926 0.75 4.12416 0.75Z" fill="black"/>
</svg>
