<svg width="162" height="120" viewBox="0 0 162 120" fill="none" xmlns="http://www.w3.org/2000/svg">
<path d="M142.284 45.8908C142.181 45.5727 141.985 45.2934 141.721 45.09C141.457 44.8865 141.138 44.7684 140.805 44.7513L97.6107 42.5814L82.2169 1.96359C81.7372 0.678803 79.631 0.678803 79.148 1.96359L63.7509 42.5814L20.5596 44.7513C20.2271 44.7683 19.9075 44.8864 19.6433 45.09C19.379 45.2937 19.1826 45.5732 19.08 45.8916C18.9773 46.21 18.9734 46.5523 19.0687 46.873C19.1639 47.1937 19.3539 47.4777 19.6133 47.6875L53.2825 74.9587L41.9926 116.917C41.8119 117.578 42.0616 118.281 42.6137 118.684C42.8834 118.88 43.2053 118.989 43.5376 118.998C43.8698 119.006 44.1971 118.915 44.4767 118.734L80.6825 94.967L116.888 118.734C117.168 118.916 117.496 119.008 117.829 118.999C118.162 118.991 118.485 118.881 118.755 118.684C119.024 118.488 119.228 118.214 119.338 117.898C119.448 117.582 119.46 117.24 119.372 116.917L108.079 74.9587L141.748 47.6875C142.008 47.478 142.199 47.1939 142.294 46.873C142.39 46.5521 142.386 46.2095 142.284 45.8908V45.8908Z" fill="#D33722"/>
</svg>
