<svg width="162" height="120" viewBox="0 0 162 120" fill="none" xmlns="http://www.w3.org/2000/svg">
<mask id="path-1-outside-1_118_2" maskUnits="userSpaceOnUse" x="20" y="2" width="120" height="116" fill="black">
<rect fill="white" x="20" y="2" width="120" height="116"/>
<path d="M89.2452 84.763H50.716L46.1311 95.4451C44.6296 99.0058 43.8788 101.946 43.8788 104.266C43.8788 107.341 45.1122 109.607 47.5789 111.064C49.0268 111.927 52.5928 112.574 58.277 113.006V116H22V113.006C25.9146 112.412 29.1321 110.794 31.6524 108.15C34.1728 105.453 37.283 99.9229 40.9831 91.5607L79.995 4H81.5233L120.857 93.9884C124.611 102.513 127.694 107.881 130.107 110.092C131.93 111.765 134.504 112.736 137.829 113.006V116H85.0625V113.006H87.2343C91.4706 113.006 94.4468 112.412 96.1628 111.225C97.3425 110.362 97.9324 109.121 97.9324 107.503C97.9324 106.532 97.7715 105.534 97.4498 104.509C97.3425 104.023 96.5382 102 95.0367 98.4393L89.2452 84.763ZM86.5104 78.7746L70.2621 40.9827L53.5312 78.7746H86.5104Z"/>
</mask>
<path d="M89.2452 84.763H50.716L46.1311 95.4451C44.6296 99.0058 43.8788 101.946 43.8788 104.266C43.8788 107.341 45.1122 109.607 47.5789 111.064C49.0268 111.927 52.5928 112.574 58.277 113.006V116H22V113.006C25.9146 112.412 29.1321 110.794 31.6524 108.15C34.1728 105.453 37.283 99.9229 40.9831 91.5607L79.995 4H81.5233L120.857 93.9884C124.611 102.513 127.694 107.881 130.107 110.092C131.93 111.765 134.504 112.736 137.829 113.006V116H85.0625V113.006H87.2343C91.4706 113.006 94.4468 112.412 96.1628 111.225C97.3425 110.362 97.9324 109.121 97.9324 107.503C97.9324 106.532 97.7715 105.534 97.4498 104.509C97.3425 104.023 96.5382 102 95.0367 98.4393L89.2452 84.763ZM86.5104 78.7746L70.2621 40.9827L53.5312 78.7746H86.5104Z" fill="#D33722"/>
<path d="M89.2452 84.763L91.0869 83.9831L90.5702 82.763H89.2452V84.763ZM50.716 84.763V82.763H49.3979L48.8781 83.9742L50.716 84.763ZM46.1311 95.4451L44.2932 94.6562L44.2882 94.668L46.1311 95.4451ZM47.5789 111.064L48.6031 109.346L48.5959 109.341L47.5789 111.064ZM58.277 113.006H60.277V111.152L58.4284 111.012L58.277 113.006ZM58.277 116V118H60.277V116H58.277ZM22 116H20V118H22V116ZM22 113.006L21.7002 111.028L20 111.286V113.006H22ZM31.6524 108.15L33.1 109.53L33.1069 109.523L33.1138 109.516L31.6524 108.15ZM40.9831 91.5607L39.1562 90.7467L39.1541 90.7514L40.9831 91.5607ZM79.995 4V2H78.6965L78.1681 3.18605L79.995 4ZM81.5233 4L83.3559 3.19898L82.8318 2H81.5233V4ZM120.857 93.9884L119.024 94.7895L119.027 94.7945L120.857 93.9884ZM130.107 110.092L131.459 108.619L131.459 108.618L130.107 110.092ZM137.829 113.006H139.829V111.161L137.991 111.012L137.829 113.006ZM137.829 116V118H139.829V116H137.829ZM85.0625 116H83.0625V118H85.0625V116ZM85.0625 113.006V111.006H83.0625V113.006H85.0625ZM96.1628 111.225L97.3005 112.87L97.3223 112.855L97.3438 112.84L96.1628 111.225ZM97.4498 104.509L95.4968 104.94L95.5156 105.025L95.5416 105.108L97.4498 104.509ZM95.0367 98.4393L96.8795 97.6622L96.8783 97.6594L95.0367 98.4393ZM86.5104 78.7746V80.7746H89.5472L88.3477 77.9846L86.5104 78.7746ZM70.2621 40.9827L72.0995 40.1927L70.2889 35.9815L68.4333 40.173L70.2621 40.9827ZM53.5312 78.7746L51.7024 77.9649L50.4586 80.7746H53.5312V78.7746ZM89.2452 82.763H50.716V86.763H89.2452V82.763ZM48.8781 83.9742L44.2932 94.6562L47.9689 96.2339L52.5538 85.5518L48.8781 83.9742ZM44.2882 94.668C42.743 98.3324 41.8788 101.559 41.8788 104.266H45.8788C45.8788 102.333 46.5162 99.6791 47.9739 96.2222L44.2882 94.668ZM41.8788 104.266C41.8788 107.985 43.4335 110.938 46.562 112.786L48.5959 109.341C46.7909 108.276 45.8788 106.697 45.8788 104.266H41.8788ZM46.5547 112.781C47.6097 113.41 49.1714 113.836 50.9821 114.164C52.8602 114.505 55.2487 114.782 58.1256 115L58.4284 111.012C55.6211 110.798 53.3845 110.535 51.6966 110.229C49.9412 109.91 48.996 109.58 48.6031 109.346L46.5547 112.781ZM56.277 113.006V116H60.277V113.006H56.277ZM58.277 114H22V118H58.277V114ZM24 116V113.006H20V116H24ZM22.2998 114.983C26.6134 114.329 30.2475 112.522 33.1 109.53L30.2049 106.77C28.0166 109.065 25.2158 110.495 21.7002 111.028L22.2998 114.983ZM33.1138 109.516C35.8911 106.543 39.1164 100.722 42.8121 92.37L39.1541 90.7514C35.4496 99.1237 32.4544 104.362 30.191 106.785L33.1138 109.516ZM42.81 92.3746L81.8218 4.81395L78.1681 3.18605L39.1562 90.7467L42.81 92.3746ZM79.995 6H81.5233V2H79.995V6ZM79.6907 4.80102L119.024 94.7895L122.689 93.1874L83.3559 3.19898L79.6907 4.80102ZM119.027 94.7945C120.919 99.0927 122.661 102.636 124.25 105.404C125.82 108.137 127.317 110.248 128.756 111.567L131.459 108.618C130.484 107.725 129.232 106.046 127.719 103.411C126.226 100.811 124.548 97.4083 122.687 93.1824L119.027 94.7945ZM128.755 111.566C131.004 113.629 134.053 114.706 137.667 114.999L137.991 111.012C134.956 110.766 132.857 109.901 131.459 108.619L128.755 111.566ZM135.829 113.006V116H139.829V113.006H135.829ZM137.829 114H85.0625V118H137.829V114ZM87.0625 116V113.006H83.0625V116H87.0625ZM85.0625 115.006H87.2343V111.006H85.0625V115.006ZM87.2343 115.006C91.5323 115.006 95.0488 114.428 97.3005 112.87L95.0251 109.581C93.8448 110.397 91.4089 111.006 87.2343 111.006V115.006ZM97.3438 112.84C99.099 111.555 99.9324 109.68 99.9324 107.503H95.9324C95.9324 108.563 95.5861 109.169 94.9818 109.611L97.3438 112.84ZM99.9324 107.503C99.9324 106.308 99.7341 105.108 99.358 103.91L95.5416 105.108C95.8089 105.959 95.9324 106.755 95.9324 107.503H99.9324ZM99.4027 104.077C99.3059 103.639 99.0007 102.834 98.6245 101.888C98.2148 100.858 97.6322 99.4472 96.8795 97.6622L93.1938 99.2164C93.9426 100.992 94.5129 102.373 94.9076 103.366C95.1052 103.863 95.2546 104.252 95.3589 104.539C95.4766 104.863 95.5022 104.964 95.4968 104.94L99.4027 104.077ZM96.8783 97.6594L91.0869 83.9831L87.4035 85.5429L93.195 99.2192L96.8783 97.6594ZM88.3477 77.9846L72.0995 40.1927L68.4247 41.7726L84.673 79.5645L88.3477 77.9846ZM68.4333 40.173L51.7024 77.9649L55.36 79.5842L72.0909 41.7923L68.4333 40.173ZM53.5312 80.7746H86.5104V76.7746H53.5312V80.7746Z" fill="#D33722" mask="url(#path-1-outside-1_118_2)"/>
</svg>
