<svg width="100" height="51" viewBox="0 0 100 51" fill="none" xmlns="http://www.w3.org/2000/svg">
<path d="M99.801 49.735L53.4086 1.31484C51.7245 -0.438281 48.2773 -0.438281 46.6063 1.31484L0.20081 49.735C0.0866101 49.854 0.0181985 49.9947 0.00315666 50.1415C-0.0118851 50.2882 0.0270311 50.4352 0.115592 50.5662C0.204153 50.6972 0.338899 50.8071 0.504894 50.8836C0.670889 50.9602 0.861649 51.0005 1.05603 51H10.9239C11.595 51 12.2265 50.751 12.6212 50.3426L50.0009 11.3355L87.3806 50.3426C87.7753 50.751 88.4068 51 89.0778 51H98.9458C99.801 51 100.301 50.2629 99.801 49.735V49.735Z" fill="#D33722"/>
</svg>
